<svg xmlns="http://www.w3.org/2000/svg" viewBox="103.01000213623047 74.7550048828125 368.97999572753906 425.4300003051758"> <svg xmlnsSerif="http://www.serif.com/" xmlns="http://www.w3.org/2000/svg" xmlns:xlink="http://www.w3.org/1999/xlink" version="1.1" id="Livello_1" x="197.59375" y="144.7550048828125" viewBox="459.7179870605469 387.2359924316406 580.56201171875 742.6180419921875" xml:space="preserve" height="230" width="179.8125" preserveAspectRatio="xMinYMin" enable-background="new 0 0 1500 1500" style="overflow: visible;"><path transform="matrix(0,1,1,0,778.606,611.394)" class="st0" d="M279.5-138.7C210.7-138.7,155-89.4,155-28.6S210.7,81.5,279.5,81.5s84.4-49.3,84.4-110.1   C363.8-89.4,348.2-138.7,279.5-138.7" style="fill: #FDC300;"></path><path transform="matrix(1,0,0,1,800,764.267)" class="st1" d="M-50,184.1c-56.7,0-103.4-13.6-109.4-71.2c-0.4,4.5-0.7,9.1-0.7,13.7c0,68.8,49.3,84.4,110.1,84.4   s110.1-15.6,110.1-84.4c0-4.6-0.2-9.2-0.7-13.7C53.4,170.5,6.7,184.1-50,184.1" style="fill: #F39200;"></path><path transform="matrix(0.166653,0.986016,0.986016,-0.166653,908.114,888.101)" class="st2" d="M64-101.9h87.7l-2.8-43.6H63.8L64-101.9z" style="fill: #8F4A1A;"></path><path transform="matrix(1,0,0,1,934.942,961.324)" class="st0" d="M-58.4,127.4c0-18.8-15.3-34.1-34.1-34.1h-36c-18.8,0-34.1,15.3-34.1,34.1s15.3,34.1,34.1,34.1h36   C-73.7,161.5-58.4,146.2-58.4,127.4" style="fill: #FDC300;"></path><path transform="matrix(1,0,0,1,898.61,943.535)" class="st3" d="M-56.2,127.8h-36c-12.8,0-23.8,7-29.7,17.4c-1.5-2.6-2.6-5.4-3.3-8.3c3.7-14.8,17.1-25.7,33-25.7h36   c15.9,0,29.3,11,33,25.7c-0.7,3-1.8,5.8-3.3,8.3C-32.3,134.8-43.4,127.8-56.2,127.8" style="fill: #FFED1A;"></path><path transform="matrix(1,0,0,1,860.172,979.114)" class="st1" d="M-53.8,127h36c12.8,0,23.8-7,29.7-17.4c1.5,2.6,2.6,5.4,3.3,8.3c-3.7,14.8-17.1,25.7-33,25.7h-36   c-15.9,0-29.3-11-33-25.7c0.7-3,1.9-5.8,3.3-8.3C-77.6,120-66.5,127-53.8,127" style="fill: #F39200;"></path><path transform="matrix(-0.166653,0.986016,0.986016,0.166653,792.667,874.425)" class="st2" d="M110.9-93.8h87.7l-2.8,43.6h-85.1L110.9-93.8z" style="fill: #8F4A1A;"></path><path transform="matrix(1,0,0,1,665.057,961.324)" class="st0" d="M-41.6,127.4c0-18.8,15.3-34.1,34.1-34.1h36c18.8,0,34.1,15.3,34.1,34.1s-15.3,34.1-34.1,34.1h-36   C-26.3,161.5-41.6,146.2-41.6,127.4" style="fill: #FDC300;"></path><path transform="matrix(1,0,0,1,701.39,943.535)" class="st3" d="M-43.8,127.8h36c12.8,0,23.8,7,29.7,17.4c1.5-2.6,2.6-5.4,3.3-8.3c-3.7-14.8-17.1-25.7-33-25.7h-36   c-15.9,0-29.3,11-33,25.7c0.7,3,1.9,5.8,3.3,8.3C-67.7,134.8-56.6,127.8-43.8,127.8" style="fill: #FFED1A;"></path><path transform="matrix(1,0,0,1,739.829,979.114)" class="st1" d="M-46.2,127h-36c-12.8,0-23.8-7-29.7-17.4c-1.5,2.6-2.6,5.4-3.3,8.3c3.7,14.8,17.1,25.7,33,25.7h36   c15.9,0,29.3-11,33-25.7c-0.7-3-1.9-5.8-3.3-8.3C-22.4,120-33.5,127-46.2,127" style="fill: #F39200;"></path><path transform="matrix(1,0,0,1,898.603,624.954)" class="st4" d="M-56.2,490.8h-36c-14.9,0-27-12.1-27-27s12.1-27,27-27h26.5l0,0l0,0h9.5c14.9,0,27,12.1,27,27   C-29.1,478.7-41.2,490.8-56.2,490.8 M-105.8,411.7l29.2-4.8l2.7,15.8h-18.2c-4,0-7.8,0.6-11.5,1.6L-105.8,411.7z M-86.4,349   l2.1,12.7l-29.2,4.8l-1.9-11.1C-105.5,354.2-95.7,352.2-86.4,349 M-222.7,327.9c-19.5-12.2-29-32.5-29-62   c0-64.8,46.3-117.5,103.1-117.5c56.9,0,103.1,52.7,103.1,117.5c0,29.5-9.5,49.8-29,62c-16.4,10.3-40.7,15.3-74.1,15.3   C-182,343.3-206.3,338.2-222.7,327.9 M-183.7,366.5l-29.2-4.8l2.1-12.7c9.3,3.2,19.1,5.2,28.9,6.4L-183.7,366.5z M-205,422.7h-18.2   l2.7-15.8l29.2,4.8l-2.1,12.6C-197.2,423.3-201,422.7-205,422.7 M-205,490.8h-36c-14.9,0-27-12.1-27-27s12.1-27,27-27h9.5l0,0l0,0   h26.5c14.9,0,27,12.1,27,27C-178,478.7-190.1,490.8-205,490.8 M-189.1,397.9l-29.2-4.8l3-17.6l29.2,4.8L-189.1,397.9z    M-111.1,380.3l29.2-4.8l3,17.6l-29.2,4.8L-111.1,380.3z M-56.2,422.7h-3.6l-13.4-79.3c24-12.4,41.7-35.3,41.7-77.5   c0-72.5-52.5-131.5-117.1-131.5s-117.1,59-117.1,131.5c0,42.1,17.7,65.1,41.7,77.5l-3.9,23l0,0l0,0l-9.5,56.3h-3.6   c-22.7,0-41.1,18.4-41.1,41.1s18.4,41.1,41.1,41.1h36c22.7,0,41.1-18.4,41.1-41.1c0-13.4-6.5-25.4-16.5-32.9l12.5-74.2   c6.6,0.4,13,0.6,19.3,0.6c6.2,0,12.7-0.1,19.3-0.6l3.2,18.9l0,0l0,0l9.3,55.2c-10,7.5-16.5,19.4-16.5,32.9   c0,22.7,18.4,41.1,41.1,41.1h36c22.7,0,41.1-18.4,41.1-41.1S-33.5,422.7-56.2,422.7" style="fill: #4C2603;"></path><path transform="matrix(1,0,0,1,800,681.244)" class="st0" d="M-50-287c-89.6,0-168.3,39.3-213.6,98.6V46.3c45.4,59.4,124.1,98.6,213.6,98.6c89.6,0,168.3-39.3,213.6-98.6   v-234.7C118.3-247.8,39.6-287-50-287" style="fill: #FDC300;"></path><path transform="matrix(1,0,0,1,536.726,450.867)" class="st5" d="M-33.5,159.3c0,35.2,12.2,67.9,33.2,95.4V63.9C-21.3,91.4-33.5,124.1-33.5,159.3" style="fill: #6D380C;"></path><path transform="matrix(1,0,0,1,1063.27,450.867)" class="st5" d="M-66.5,159.3c0,35.2-12.2,67.9-33.2,95.4V63.9C-78.7,91.4-66.5,124.1-66.5,159.3" style="fill: #6D380C;"></path><path transform="matrix(1,0,0,1,973.044,513.926)" class="st5" d="M-60.8,48.4C-67,22.6-87.6,2.7-113.6-2.4c-26.7-5.2-65.1-10.7-109.4-10.7s-82.8,5.5-109.4,10.7   c-26,5.1-46.6,25-52.8,50.8c-3.7,15.3-6.6,33.7-6.6,53.5s3,38.2,6.6,53.5c6.2,25.8,26.8,45.7,52.8,50.8   c26.7,5.2,65.1,10.7,109.4,10.7s82.8-5.5,109.4-10.7c26-5.1,46.6-25,52.8-50.8c3.7-15.3,6.6-33.7,6.6-53.5S-57.1,63.7-60.8,48.4" style="fill: #6D380C;"></path><path transform="matrix(1,0,0,1,949.557,503.65)" class="st2" d="M-59.3,68.4c-5.4-21.2-23.1-37.5-45.6-41.7c-23-4.3-56.3-8.8-94.6-8.8s-71.5,4.5-94.6,8.8   c-22.5,4.2-40.3,20.5-45.6,41.7c-3.2,12.5-5.7,27.6-5.7,43.8s2.6,31.3,5.7,43.8c5.4,21.2,23.1,37.5,45.6,41.7   c23,4.3,56.3,8.8,94.6,8.8s71.5-4.5,94.6-8.8c22.5-4.2,40.3-20.5,45.6-41.7c3.2-12.5,5.7-27.6,5.7-43.8S-56.2,80.9-59.3,68.4" style="fill: #8F4A1A;"></path><path transform="matrix(0,1,1,0,747.404,45.2064)" class="st3" d="M447.6-211C388.3-165.7,349-87,349,2.6s39.3,168.3,98.6,213.6c0,0-77.8-69.1-77.8-213.6   C369.8-142,447.6-211,447.6-211" style="fill: #FFED1A;"></path><path transform="matrix(1,0,0,1,810.385,222.001)" class="st1" d="M-50.6,238.8h-19.5c-32,0-58.1-26.1-58.1-58.1c0-3.9,3.1-7,7-7s7,3.1,7,7c0,24.3,19.8,44.1,44.1,44.1h19.5   c24.3,0,44.1-19.8,44.1-44.1c0-3.9,3.1-7,7-7s7,3.1,7,7C7.5,212.7-18.6,238.8-50.6,238.8" style="fill: #F39200;"></path><path transform="matrix(1,0,0,1,965.764,401.619)" class="st4" d="M-60.4,266c-5.6,23.1-24.2,41-47.3,45.6c-24.6,4.8-63.3,10.6-108.1,10.6s-83.5-5.7-108.1-10.6   c-23.2-4.5-41.8-22.4-47.3-45.6c-4.3-17.7-6.4-35.2-6.4-51.8s2.2-34.1,6.4-51.8c5.6-23.1,24.2-41,47.3-45.6   c24.6-4.8,63.3-10.6,108.1-10.6s83.5,5.7,108.1,10.6c23.2,4.5,41.8,22.4,47.3,45.6c4.3,17.7,6.4,35.2,6.4,51.8   S-56.1,248.3-60.4,266 M-46.7,159.1c-6.9-28.5-29.7-50.5-58.3-56.1c-25.2-4.9-64.9-10.8-110.8-10.8s-85.6,5.9-110.8,10.8   c-28.6,5.6-51.4,27.6-58.3,56.1c-4.5,18.8-6.8,37.4-6.8,55.1s2.3,36.3,6.8,55.1c6.9,28.5,29.7,50.5,58.3,56.1   c25.2,4.9,64.9,10.8,110.8,10.8s85.6-5.9,110.8-10.8c28.6-5.6,51.4-27.6,58.3-56.1c4.5-18.8,6.8-37.4,6.8-55.1   S-42.2,177.9-46.7,159.1L-46.7,159.1z" style="fill: #4C2603;"></path><path transform="matrix(1,0,0,1,1020.39,328.236)" class="st4" d="M-63.8,396.9c-46,58.9-123.1,94-206.6,94s-160.6-35.1-206.6-94V167c46-58.9,123.1-94,206.6-94   s160.6,35.1,206.6,94L-63.8,396.9L-63.8,396.9z M-510.2,282c0-25.1,6.6-49.6,19.1-72v144C-503.6,331.6-510.2,307-510.2,282    M-30.6,282c0,25.1-6.6,49.6-19.1,72V210C-37.2,232.3-30.6,256.9-30.6,282 M-16.6,282c0-34.8-11.5-68.5-33.2-97.7v-19.6   c0-1.5-0.5-3-1.4-4.3C-99.7,96.8-181.6,59-270.4,59s-170.7,37.9-219.2,101.4c-0.9,1.2-1.4,2.7-1.4,4.3v19.6   c-21.7,29.2-33.2,62.9-33.2,97.7s11.5,68.5,33.2,97.7v19.6c0,1.5,0.5,3,1.4,4.3C-441.1,467.1-359.1,505-270.4,505   c88.8,0,170.7-37.9,219.2-101.4c0.9-1.2,1.4-2.7,1.4-4.3v-19.6C-28,350.5-16.6,316.7-16.6,282" style="fill: #4C2603;"></path><path transform="matrix(1,0,0,1,716.121,443.756)" class="st4" d="M-44.8,108c-23,0-41.8,18.7-41.8,41.8c0,5.5,4.5,10,10,10s10-4.5,10-10c0-12,9.7-21.7,21.7-21.7   s21.7,9.7,21.7,21.7c0,5.5,4.5,10,10,10s10-4.5,10-10C-3,126.7-21.7,108-44.8,108" style="fill: #4C2603;"></path><path transform="matrix(1,0,0,1,883.879,443.756)" class="st4" d="M-55.2,108c-23,0-41.8,18.7-41.8,41.8c0,5.5,4.5,10,10,10s10-4.5,10-10c0-12,9.7-21.7,21.7-21.7   s21.7,9.7,21.7,21.7c0,5.5,4.5,10,10,10s10-4.5,10-10C-13.5,126.7-32.2,108-55.2,108" style="fill: #4C2603;"></path><path transform="matrix(1,0,0,1,815.169,488.378)" class="st4" d="M-50.9,127.7l-14.2,10.2l-14.2-10.2c-4.5-3.2-10.8-2.2-14,2.3s-2.2,10.8,2.3,14l20.1,14.4   c1.7,1.2,3.8,1.9,5.8,1.9s4.1-0.6,5.8-1.9l20.1-14.4c4.5-3.2,5.5-9.5,2.3-14C-40.2,125.5-46.4,124.4-50.9,127.7" style="fill: #4C2603;"></path><path transform="matrix(1,0,0,1,813.067,670.89)" class="st6" d="M-50.8,92.2c5.8,20.2-5.8,41.3-26,47.1l-39.5,11.4l-72.1,20.8c-20.2,5.8-41.3-5.8-47.1-26l0,0   c-5.8-20.2,5.8-41.3,26-47.1L-98,66.2C-77.8,60.4-56.7,72-50.8,92.2 M-116.2-0.9l-113.7,32.8c-57.1,16.5-90,76.1-73.5,133.2   s76.1,90,133.2,73.5l113.7-32.8c57.1-16.5,90-76.1,73.5-133.2S-59.1-17.4-116.2-0.9" style="fill: #BDD9E9;"></path><path transform="matrix(1,0,0,1,984.425,698.618)" class="st6" d="M-61.5,90.5c5.8,20.2-5.8,41.3-26,47.1l-111.7,32.2c-20.2,5.8-41.3-5.8-47.1-26c-5.8-20.2,5.8-41.3,26-47.1   l111.7-32.2C-88.5,58.6-67.4,70.3-61.5,90.5 M-126.9-2.6l-113.7,32.8c-57.1,16.5-90,76.1-73.5,133.2s76.1,90,133.2,73.5l113.7-32.8   c57.1-16.5,90-76.1,73.5-133.2S-69.8-19.1-126.9-2.6" style="fill: #BDD9E9;"></path><path transform="matrix(1,0,0,1,627.972,617.387)" class="st7" d="M-39.2,105.8c0,0,32.4-9.6,113.3-31.5s128.1,51.8,128.1,51.8C185.6,69,126,36.1,68.9,52.6L-44.8,85.4   c-57.1,16.5-90,76.1-73.5,133.2C-112.2,123.2-39.2,105.8-39.2,105.8" style="fill: #FFFFFF;"></path><path transform="matrix(1,0,0,1,914.665,603.228)" class="st7" d="M-57.2,92.7l-45.4,13.1l11.8,18l37.1-11.2c79.5-19.9,129.8,53.6,129.8,53.6C59.6,109.2-0.1,76.3-57.2,92.7" style="fill: #FFFFFF;"></path><path transform="matrix(1,0,0,1,710.395,781.258)" class="st8" d="M-44.4,52c0,0-1.7,32.2,21.5,63.5l-58.5,17.1c0,0-50.1,6.1-83.5-23.8c0,0,41.4,12.6,77.4,3.2l36-9.4   c0,0-8.3-14.4-8.3-47.8L-44.4,52z" style="fill: #8FB7CC;"></path><path transform="matrix(1,0,0,1,977.634,697.725)" class="st8" d="M-61.1,182.2c0,0-28.7,6.6-113.5,28.7s-132.8-46.6-132.8-46.6c16.5,57.1,76.1,90,133.2,73.5L-60.4,205   c57.1-16.5,90-76.1,73.5-133.2C12.3,154.5-61.1,182.2-61.1,182.2" style="fill: #8FB7CC;"></path><path transform="matrix(0,1,1,0,674.297,452.452)" class="st9" d="M178.9-61.8c-8.6,0-15.5,8.8-15.5,19.7s7,19.7,15.5,19.7c8.6,0,15.5-8.8,15.5-19.7S187.5-61.8,178.9-61.8" style="fill: #BA5F25;"></path><path transform="matrix(0,-1,-1,0,925.704,452.452)" class="st9" d="M-178.9,38.2c8.6,0,15.5,8.8,15.5,19.7s-7,19.7-15.5,19.7c-8.6,0-15.5-8.8-15.5-19.7   C-194.5,47-187.5,38.2-178.9,38.2" style="fill: #BA5F25;"></path><path id="Livello-4" serifId="Livello 4" class="st4" d="M915.3,896l-113.7,32.8c-25.8,7.5-53,4.4-76.5-8.6c-12.5-6.9-23.2-16.2-31.6-27.3c-0.2-0.3-0.4-0.6-0.6-0.9   c-7-9.5-12.4-20.3-15.8-32c-13.4-46.5,7.9-95.5,50.8-117.4c12.7,0.9,24,9.5,27.8,22.4c3.4,11.7-0.4,24.3-9.6,32.2   c-0.2,0.2-0.5,0.3-0.7,0.5c-13.2,11.5-18.7,29.8-13.8,46.6c5.6,19.4,23.1,32.1,42.3,32.6c0.2,0,0.5,0,0.7,0c0.1,0,0.2,0,0.3,0   c4.1,0,8.3-0.6,12.5-1.8l111.7-32.2c23.9-6.9,37.7-31.9,30.8-55.8c-3.3-11.6-11-21.2-21.5-27c-10.5-5.8-22.7-7.2-34.3-3.8   l-32.7,9.4c-0.5-8.1-1.9-16.2-4.3-24.2c-3-10.2-7.2-19.8-12.7-28.7l35.3-10.2c53.3-15.4,109.2,15.5,124.5,68.7   C999.4,824.7,968.6,880.6,915.3,896 M659.2,825.1l-36.5,10.5c-8,2.3-16.4,1.4-23.6-2.6c-7.3-4-12.5-10.6-14.8-18.6   s-1.4-16.4,2.6-23.6c4-7.3,10.6-12.5,18.6-14.8l87.4-25.2C672.8,770.6,660.9,797.1,659.2,825.1 M877.7,769.8   c8-2.3,16.4-1.4,23.6,2.6c7.3,4,12.5,10.6,14.8,18.6c4.7,16.5-4.8,33.7-21.2,38.5l-87.4,25.2c20-19.8,31.9-46.3,33.6-74.4   L877.7,769.8z M640.9,902.8c-25.8,7.5-53,4.4-76.5-8.6s-40.6-34.4-48-60.2c-7.5-25.8-4.4-53,8.6-76.5s34.4-40.6,60.2-48l113.7-32.8   c25.8-7.5,53-4.4,76.5,8.6c12.5,6.9,23.2,16.2,31.6,27.3c0.2,0.3,0.4,0.6,0.6,0.9c7,9.5,12.4,20.3,15.8,32c2.8,9.8,4.1,19.6,4,29.4   c0,0.1,0,0.1,0,0.2c-0.5,36.5-20.9,70.6-54.7,87.9c-12.7-0.9-24-9.5-27.8-22.4c-3.3-11.4,0.3-23.7,9-31.6c0.1-0.1,0.3-0.2,0.4-0.3   c14-11.4,19.8-30.1,14.8-47.4c-5.6-19.4-23.2-32.2-42.5-32.6c-0.2,0-0.5,0-0.7,0c-4.2,0-8.4,0.5-12.6,1.8l-111.7,32.2   c-11.6,3.3-21.2,11-27,21.5s-7.2,22.7-3.8,34.3c3.3,11.6,11,21.2,21.5,27c6.8,3.7,14.2,5.6,21.7,5.6c4.2,0,8.4-0.6,12.6-1.8   l32.7-9.4c0.5,8.1,1.9,16.2,4.3,24.2c3,10.2,7.2,19.8,12.7,28.7L640.9,902.8z M997.5,767.5c-8.5-29.4-27.9-53.8-54.7-68.6   s-57.8-18.3-87.2-9.8l-40.1,11.6c-9.1-11.2-20.4-20.6-33.4-27.8c-26.8-14.8-57.8-18.3-87.2-9.8l-113.7,32.8   c-29.4,8.5-53.8,27.9-68.6,54.7c-14.8,26.8-18.3,57.8-9.8,87.2c8.5,29.4,27.9,53.8,54.7,68.6c17.2,9.5,36.1,14.3,55.2,14.3   c10.7,0,21.4-1.5,32-4.6l40.1-11.6c9.1,11.2,20.4,20.6,33.4,27.8c17.2,9.5,36.1,14.3,55.2,14.3c10.7,0,21.4-1.5,32-4.6l113.7-32.8   c29.4-8.5,53.8-27.9,68.6-54.7C1002.5,827.9,1006,796.9,997.5,767.5" style="fill: #4C2603;"></path><path transform="matrix(1,0,0,1,542.618,730.499)" class="st0" d="M-33.9,13.6C-10.7,13.6,8,32.4,8,55.5v44.4c0,23.2-18.8,41.9-41.9,41.9S-75.8,123-75.8,99.9V55.5   C-75.9,32.4-57.1,13.6-33.9,13.6" style="fill: #FDC300;"></path><path transform="matrix(1,0,0,1,542.618,657.079)" class="st3" d="M-33.9,87c-23.2,0-41.9,18.8-41.9,41.9v17.5c0-23.2,18.8-41.9,41.9-41.9S8,123.3,8,146.4V129   C8,105.8-10.7,87-33.9,87" style="fill: #FFED1A;"></path><path transform="matrix(1,0,0,1,542.618,685.762)" class="st1" d="M-33.9,164.5c-23.2,0-41.9-18.8-41.9-41.9v22.1c0,23.2,18.8,41.9,41.9,41.9S8,167.8,8,144.6v-22.1   C8,145.7-10.7,164.5-33.9,164.5" style="fill: #F39200;"></path><path transform="matrix(1,0,0,1,1057.38,730.499)" class="st0" d="M-66.1,13.6c-23.2,0-41.9,18.8-41.9,41.9v44.4c0,23.2,18.8,41.9,41.9,41.9s41.9-18.8,41.9-41.9V55.5   C-24.1,32.4-42.9,13.6-66.1,13.6" style="fill: #FDC300;"></path><path transform="matrix(1,0,0,1,1057.38,657.079)" class="st3" d="M-66.1,87c23.2,0,41.9,18.8,41.9,41.9v17.5c0-23.2-18.8-41.9-41.9-41.9s-41.9,18.8-41.9,41.9V129   C-108,105.8-89.2,87-66.1,87" style="fill: #FFED1A;"></path><path transform="matrix(1,0,0,1,1057.38,685.762)" class="st1" d="M-66.1,164.5c23.2,0,41.9-18.8,41.9-41.9v22.1c0,23.2-18.8,41.9-41.9,41.9s-41.9-18.8-41.9-41.9v-22.1   C-108,145.7-89.2,164.5-66.1,164.5" style="fill: #F39200;"></path><path transform="matrix(1,0,0,1,542.618,723.011)" class="st4" d="M-33.9,28.1c-19.3,0-34.9,15.7-34.9,34.9v44.4c0,19.3,15.7,34.9,34.9,34.9S1,126.6,1,107.4V63   C1,43.8-14.7,28.1-33.9,28.1 M-33.9,156.4c-27,0-49-22-49-49V63c0-27,22-49,49-49s49,22,49,49v44.4C15,134.4-6.9,156.4-33.9,156.4" style="fill: #4C2603;"></path><path transform="matrix(1,0,0,1,1057.38,723.011)" class="st4" d="M-66.1,28.1C-85.3,28.1-101,43.8-101,63v44.4c0,19.3,15.7,34.9,34.9,34.9s34.9-15.7,34.9-34.9V63   C-31.2,43.8-46.8,28.1-66.1,28.1 M-66.1,156.4c-27,0-49-22-49-49V63c0-27,22-49,49-49s49,22,49,49v44.4   C-17.1,134.4-39.1,156.4-66.1,156.4" style="fill: #4C2603;"></path></svg> <svg xmlns="http://www.w3.org/2000/svg" y="389.7550048828125" viewBox="1.9600000381469727 17.639999389648438 228.97999572753906 40.43000030517578" x="173.01000213623047" height="40.43000030517578" width="228.97999572753906" style="overflow: visible;"><g fill="#F39200" fill-opacity="1" style=""><path d="M16.35 58.07L16.35 58.07Q11.31 58.07 7.76 56.34Q4.20 54.60 1.96 51.74L1.96 51.74L6.38 47.15Q8.57 49.67 11.12 50.88Q13.66 52.08 16.58 52.08L16.58 52.08Q19.94 52.08 21.73 50.57Q23.52 49.06 23.52 46.20L23.52 46.20Q23.52 43.85 22.18 42.64Q20.83 41.44 17.64 40.94L17.64 40.94L13.50 40.26Q8.06 39.31 5.77 36.32Q3.47 33.32 3.47 29.23L3.47 29.23Q3.47 23.63 7.11 20.64Q10.75 17.64 17.19 17.64L17.19 17.64Q21.78 17.64 25.12 19.10Q28.45 20.55 30.46 23.07L30.46 23.07L26.15 27.66Q24.58 25.82 22.40 24.72Q20.22 23.63 17.25 23.63L17.25 23.63Q10.86 23.63 10.86 28.90L10.86 28.90Q10.86 31.14 12.21 32.31Q13.55 33.49 16.80 34.05L16.80 34.05L20.89 34.78Q25.98 35.73 28.45 38.53Q30.91 41.33 30.91 45.70L30.91 45.70Q30.91 48.44 29.96 50.71Q29.01 52.98 27.16 54.63Q25.31 56.28 22.60 57.18Q19.88 58.07 16.35 58.07ZM56.11 57.40L56.11 40.60L44.69 40.60L44.69 57.40L37.35 57.40L37.35 18.31L44.69 18.31L44.69 34.55L56.11 34.55L56.11 18.31L63.45 18.31L63.45 57.40L56.11 57.40ZM100.13 57.40L92.34 57.40L89.60 47.49L78.01 47.49L75.32 57.40L67.93 57.40L78.90 18.31L89.10 18.31L100.13 57.40ZM88.37 41.50L84.06 25.54L83.61 25.54L79.30 41.50L88.37 41.50ZM118.61 58.07L118.61 58.07Q110.94 58.07 107.27 52.81Q103.60 47.54 103.60 37.86L103.60 37.86Q103.60 28.22 107.27 22.93Q110.94 17.64 118.61 17.64L118.61 17.64Q121.52 17.64 123.73 18.42Q125.94 19.21 127.57 20.58Q129.19 21.95 130.26 23.88Q131.32 25.82 131.94 28.11L131.94 28.11L125.22 30.02Q124.82 28.67 124.32 27.50Q123.82 26.32 123.06 25.45Q122.30 24.58 121.18 24.11Q120.06 23.63 118.50 23.63L118.50 23.63Q114.69 23.63 113.04 26.54Q111.38 29.46 111.38 34.50L111.38 34.50L111.38 41.22Q111.38 46.26 113.04 49.17Q114.69 52.08 118.50 52.08L118.50 52.08Q120.06 52.08 121.18 51.60Q122.30 51.13 123.06 50.26Q123.82 49.39 124.32 48.22Q124.82 47.04 125.22 45.70L125.22 45.70L131.94 47.60Q131.32 49.90 130.26 51.83Q129.19 53.76 127.57 55.13Q125.94 56.50 123.73 57.29Q121.52 58.07 118.61 58.07ZM159.49 57.40L149.91 40.26L145.82 45.64L145.82 57.40L138.49 57.40L138.49 18.31L145.82 18.31L145.82 35.90L146.16 35.90L150.70 29.40L158.93 18.31L167.22 18.31L154.95 34.78L167.78 57.40L159.49 57.40ZM198.24 57.40L173.60 57.40L173.60 18.31L180.94 18.31L180.94 51.35L198.24 51.35L198.24 57.40ZM230.94 57.40L206.25 57.40L206.25 18.31L230.94 18.31L230.94 24.36L213.58 24.36L213.58 34.55L230.33 34.55L230.33 40.60L213.58 40.60L213.58 51.35L230.94 51.35L230.94 57.40Z" transform="translate(0, 0)"></path></g></svg></svg>